<?xml version="1.0" standalone="no"?>
<!DOCTYPE svg PUBLIC "-//W3C//DTD SVG 20010904//EN"
 "http://www.w3.org/TR/2001/REC-SVG-20010904/DTD/svg10.dtd">
<svg version="1.0" xmlns="http://www.w3.org/2000/svg"
 width="3000.000000pt" height="1668.000000pt" viewBox="0 0 3000.000000 1668.000000"
 preserveAspectRatio="xMidYMid meet">

<g transform="translate(0.000000,1668.000000) scale(0.100000,-0.100000)"
fill="#000000" stroke="none">
<path d="M2730 14146 c1123 -1121 1657 -1649 1730 -1706 411 -325 853 -520
1366 -601 129 -21 181 -23 694 -26 l555 -4 928 -927 c510 -510 927 -930 927
-934 0 -5 -631 -8 -1402 -8 l-1403 0 1620 -1621 c1013 -1014 1659 -1652 1725
-1706 401 -325 841 -518 1375 -605 l140 -22 1745 -6 1745 -5 46 -21 c139 -65
207 -206 196 -408 -12 -228 -128 -448 -351 -671 -270 -269 -615 -464 -1110
-627 -455 -149 -923 -225 -1441 -235 -462 -9 -831 26 -1259 119 -112 24 -1118
284 -1176 304 -29 9 1586 -1594 1730 -1717 378 -326 702 -560 1115 -807 221
-132 680 -362 910 -457 1253 -517 2592 -686 3930 -494 1819 260 3481 1186
4654 2594 693 833 1218 1844 1481 2855 27 107 55 209 61 225 6 17 15 53 19 80
4 28 24 137 44 243 79 420 115 781 123 1237 27 1529 -387 2955 -1232 4235
-1193 1810 -3127 3013 -5275 3284 -427 54 222 50 -8145 53 l-7690 3 1625
-1624z m13878 551 c263 -29 440 -57 667 -102 1904 -382 3547 -1634 4435 -3380
375 -739 591 -1494 672 -2360 20 -216 17 -884 -5 -1105 -33 -329 -99 -727
-131 -789 -9 -16 -16 -50 -16 -74 0 -95 -156 -607 -278 -912 -579 -1447 -1681
-2647 -3082 -3354 -755 -382 -1522 -596 -2405 -672 -182 -16 -728 -16 -920 -1
-767 63 -1515 249 -2130 532 l-90 41 62 -5 c35 -3 200 -11 368 -17 981 -35
1938 90 2755 361 767 254 1403 602 1991 1090 163 136 547 521 683 685 740 892
1188 1932 1316 3054 112 980 -36 1863 -451 2681 -548 1084 -1502 1897 -2666
2274 -343 111 -726 182 -1113 206 -108 6 -1902 10 -5165 10 -4351 0 -5013 2
-5104 15 -339 48 -640 182 -896 397 -49 42 -398 385 -775 762 l-685 686 6405
-3 c5980 -2 6415 -4 6558 -20z m-163 -2915 c83 -12 194 -30 247 -41 847 -175
1584 -643 2103 -1336 134 -179 212 -305 320 -520 341 -675 444 -1383 324
-2220 -97 -674 -360 -1358 -741 -1928 -472 -707 -1099 -1250 -1873 -1623 -220
-106 -560 -243 -572 -231 -2 2 36 30 84 62 433 287 869 687 1197 1100 103 129
288 404 377 560 277 485 459 1047 509 1576 17 169 8 597 -15 739 -25 161 -63
320 -107 453 -265 802 -887 1348 -1728 1516 -264 53 -169 51 -2900 51 -1630 0
-2576 4 -2650 10 -360 32 -684 160 -970 383 -67 53 -1480 1455 -1480 1469 0 5
1738 7 3863 5 l3862 -3 150 -22z m-82 -2920 c583 -124 930 -516 1013 -1146 21
-155 14 -419 -15 -591 -157 -924 -780 -1786 -1723 -2383 -54 -34 -99 -62 -100
-62 -2 0 18 44 44 99 64 133 123 310 155 461 25 113 27 145 27 340 0 186 -3
229 -23 320 -63 296 -192 541 -386 735 -185 185 -406 304 -683 367 l-97 22
-1765 6 c-1656 5 -1771 7 -1860 24 -285 55 -544 168 -772 338 -53 39 -343 321
-803 780 l-720 718 3800 -3 3800 -2 108 -23z"/>
<path d="M24725 14734 c-916 -58 -1677 -372 -2355 -972 -69 -60 -154 -139
-189 -175 l-64 -66 90 -113 c920 -1156 1498 -2557 1663 -4028 33 -295 41 -423
47 -755 6 -347 -5 -618 -38 -949 -11 -109 -18 -201 -15 -204 3 -3 6 3 6 13 0
9 25 119 56 243 334 1348 851 2503 1520 3397 711 948 1582 1622 2571 1989 265
98 635 193 826 212 37 4 70 10 72 14 3 4 -77 62 -178 127 -306 201 -538 334
-877 504 -848 424 -1661 672 -2460 749 -111 11 -574 20 -675 14z m675 -1069
c270 -33 517 -83 794 -161 88 -25 163 -47 168 -50 5 -3 -55 -50 -132 -104
-642 -452 -1213 -1021 -1683 -1678 -79 -110 -104 -138 -109 -125 -4 10 -45
115 -92 233 -193 490 -428 962 -696 1397 -49 80 -90 149 -90 153 0 11 246 131
359 175 237 92 511 151 831 179 100 9 523 -4 650 -19z"/>
<path d="M23851 7444 c0 -11 3 -14 6 -6 3 7 2 16 -1 19 -3 4 -6 -2 -5 -13z"/>
</g>
</svg>
